STARTFONT 2.1
COMMENT This is a custom-made font for the xpilot game
FONT map-5
SIZE 1 1 1
FONTBOUNDINGBOX 5 5 0 0
STARTPROPERTIES 3
FONT_ASCENT 5
FONT_DESCENT 0
DEFAULT_CHAR 36
ENDPROPERTIES 
CHARS 29
STARTCHAR Others
ENCODING 36
SWIDTH 350 0 
DWIDTH 5 0 
BBX 5 5 0 0
BITMAP 
88
50
20
50
88
ENDCHAR
STARTCHAR PosGrav
ENCODING 43
SWIDTH 350 0
DWIDTH 5 0
BBX 5 5 0 0
BITMAP 
20
20
F8
20
20
ENDCHAR
STARTCHAR NegGrav 
ENCODING 45
SWIDTH 350 0 
DWIDTH 5 0 
BBX 5 5 0 0
BITMAP 
00
00
F8
00
00
ENDCHAR
STARTCHAR Slash
ENCODING 47
SWIDTH 350 0 
DWIDTH 5 0 
BBX 5 5 0 0
BITMAP 
08
10
20
40
80
ENDCHAR
STARTCHAR Dot
ENCODING 46
SWIDTH 350 0
DWIDTH 5 0
BBX 5 5 0 0
BITMAP
00
00
00
18
18
ENDCHAR
STARTCHAR Upperleft 
ENCODING 113 
SWIDTH 350 0 
DWIDTH 5 0 
BBX 5 5 0 0
BITMAP 
08
18
38
78
F8
ENDCHAR 
STARTCHAR Upperright 
ENCODING 119 
SWIDTH 350 0 
DWIDTH 5 0 
BBX 5 5 0 0 
BITMAP 
80
C0
E0
F0
F8
ENDCHAR 
STARTCHAR Lowerleft 
ENCODING 97 
SWIDTH 350 0 
DWIDTH 5 0 
BBX 5 5 0 0 
BITMAP 
F8
78
38
18
08
ENDCHAR 
STARTCHAR Lowerright 
ENCODING 115 
SWIDTH 350 0 
DWIDTH 5 0 
BBX 5 5 0 0 
BITMAP 
F8
F0
E0
C0
80
ENDCHAR 
STARTCHAR Upcannon 
ENCODING 114
SWIDTH 350 0 
DWIDTH 5 0 
BBX 5 5 0 0 
BITMAP 
00
00
20
50
88
ENDCHAR
STARTCHAR Downcannon 
ENCODING 99 
SWIDTH 350 0 
DWIDTH 5 0 
BBX 5 5 0 0
BITMAP 
88
50
20
00
00
ENDCHAR 
STARTCHAR Rightcannon 
ENCODING 102 
SWIDTH 350 0 
DWIDTH 5 0 
BBX 5 5 0 0 
BITMAP 
80
40
20
40
80
ENDCHAR 
STARTCHAR Leftcannon 
ENCODING 100 
SWIDTH 350 0 
DWIDTH 5 0 
BBX 5 5 0 0 
BITMAP
08
10
20
10
08
ENDCHAR 
STARTCHAR Square 
ENCODING 120 
SWIDTH 350 0 
DWIDTH 5 0 
BBX 5 5 0 0 
BITMAP 
F8
F8
F8
F8
F8
ENDCHAR 
STARTCHAR Homebase 
ENCODING 42
SWIDTH 350 0 
DWIDTH 5 0 
BBX 5 5 0 0 
BITMAP 
20
20
A8
70
20
ENDCHAR
STARTCHAR Fuel 
ENCODING 70 
SWIDTH 350 0 
DWIDTH 5 0 
BBX 5 5 0 0 
BITMAP 
F8
88
88
88
F8
ENDCHAR 
STARTCHAR Open 
ENCODING 32 
SWIDTH 350 0 
DWIDTH 5 0 
BBX 5 5 0 0 
BITMAP 
00
00
20
00
00
ENDCHAR
STARTCHAR Postnil
ENCODING 48
SWIDTH 350 0 
DWIDTH 5 0 
BBX 5 5 0 0
BITMAP
20
50
88
50
20
ENDCHAR
STARTCHAR Postone
ENCODING 49
SWIDTH 350 0 
DWIDTH 5 0 
BBX 5 5 0 0
BITMAP
20
50
88
50
20
ENDCHAR
STARTCHAR Posttwo
ENCODING 50
SWIDTH 350 0 
DWIDTH 5 0 
BBX 5 5 0 0
BITMAP
20
50
88
50
20
ENDCHAR
STARTCHAR Postthree
ENCODING 51
SWIDTH 350 0 
DWIDTH 5 0 
BBX 5 5 0 0
BITMAP
20
50
88
50
20
ENDCHAR
STARTCHAR Postfour
ENCODING 52
SWIDTH 350 0 
DWIDTH 5 0 
BBX 5 5 0 0
BITMAP
20
50
88
50
20
ENDCHAR
STARTCHAR Postfive
ENCODING 53
SWIDTH 350 0 
DWIDTH 5 0 
BBX 5 5 0 0
BITMAP
20
50
88
50
20
ENDCHAR
STARTCHAR Postsix
ENCODING 54
SWIDTH 350 0 
DWIDTH 5 0 
BBX 5 5 0 0
BITMAP
20
50
88
50
20
ENDCHAR
STARTCHAR Postseven
ENCODING 55
SWIDTH 350 0 
DWIDTH 5 0 
BBX 5 5 0 0
BITMAP
20
50
88
50
20
ENDCHAR
STARTCHAR Posteight
ENCODING 56
SWIDTH 350 0 
DWIDTH 5 0 
BBX 5 5 0 0
BITMAP
20
50
88
50
20
ENDCHAR
STARTCHAR Postnine
ENCODING 57
SWIDTH 350 0 
DWIDTH 5 0 
BBX 5 5 0 0
BITMAP
20
50
88
50
20
ENDCHAR
STARTCHAR counterclockwise
COMMENT a curling forcefield with a counterclockwise curl
COMMENT typed as '<' represented by a curling arrow
ENCODING 60
SWIDTH 350 0
DWIDTH 5 0
BBX 5 5 0 0
BITMAP
40
F0
48
08
10
ENDCHAR
STARTCHAR clockwise
COMMENT a curling forcefield with a clockwise curl
COMMENT typed as '>' represented by a curling arrow 
ENCODING 62
SWIDTH 350 0
DWIDTH 5 0
BBX 5 5 0 0
BITMAP
10
78
90
80
40
ENDCHAR
ENDFONT
